<svg width="40" height="40" viewBox="0 0 40 40" fill="none" xmlns="http://www.w3.org/2000/svg">
<rect width="40" height="40" rx="6" fill="#E2F3FF" fill-opacity="0.64"/>
<path opacity="0.4" d="M28.0999 14.94C28.0999 15.48 27.8099 15.97 27.3499 16.22L25.6099 17.16L24.1299 17.95L21.0599 19.61C20.7299 19.79 20.3699 19.88 19.9999 19.88C19.6299 19.88 19.2699 19.79 18.9399 19.61L12.6499 16.22C12.1899 15.97 11.8999 15.48 11.8999 14.94C11.8999 14.4 12.1899 13.91 12.6499 13.66L14.6199 12.6L16.1899 11.75L18.9399 10.27C19.5999 9.91 20.3999 9.91 21.0599 10.27L27.3499 13.66C27.8099 13.91 28.0999 14.4 28.0999 14.94Z" fill="#2A56BD"/>
<path opacity="0.4" d="M17.9 20.7899L12.05 17.8599C11.6 17.6299 11.08 17.6599 10.65 17.9199C10.22 18.1799 9.96997 18.6399 9.96997 19.1399V24.6699C9.96997 25.6299 10.5 26.4899 11.36 26.9199L17.21 29.8399C17.41 29.9399 17.63 29.9899 17.85 29.9899C18.11 29.9899 18.37 29.9199 18.6 29.7699C19.03 29.5099 19.28 29.0499 19.28 28.5499V23.0199C19.29 22.0799 18.76 21.2199 17.9 20.7899Z" fill="#2A56BD"/>
<path opacity="0.4" d="M30.03 19.1502V24.6801C30.03 25.6301 29.5 26.4901 28.64 26.9201L22.79 29.8501C22.59 29.9501 22.37 30.0001 22.15 30.0001C21.89 30.0001 21.63 29.9302 21.39 29.7802C20.97 29.5202 20.71 29.0601 20.71 28.5601V23.0401C20.71 22.0801 21.24 21.2201 22.1 20.7901L24.25 19.7201L25.75 18.9701L27.95 17.8701C28.4 17.6401 28.92 17.6601 29.35 17.9301C29.77 18.1901 30.03 18.6502 30.03 19.1502Z" fill="#2A56BD"/>
<path d="M25.6101 17.16L24.1301 17.95L14.6201 12.6L16.1901 11.75L25.3701 16.93C25.4701 16.99 25.5501 17.07 25.6101 17.16Z" fill="#2A56BD"/>
<path d="M25.75 18.97V21.24C25.75 21.65 25.41 21.99 25 21.99C24.59 21.99 24.25 21.65 24.25 21.24V19.72L25.75 18.97Z" fill="#2A56BD"/>
</svg>
