<svg width="33" height="32" viewBox="0 0 33 32" fill="none" xmlns="http://www.w3.org/2000/svg">
<g clip-path="url(#clip0_3816_45008)">
<circle cx="12.5" cy="12" r="12" fill="#ECF7FF"/>
<path d="M27.8333 12.3333H26.8333V8C26.8333 5.97333 25.1933 4.33333 23.1667 4.33333H21.4333C21.2733 3.57333 20.6333 3 19.8333 3H13.1667C12.3667 3 11.7267 3.57333 11.5667 4.33333H9.83333C7.80667 4.33333 6.16667 5.97333 6.16667 8V12.3333H5.16667C4.24667 12.3333 3.5 13.08 3.5 14V16.6667C3.5 17.5067 4.14 18.1733 4.94 18.2933L5.87333 25.7867C6.1 27.6133 7.66 29 9.51333 29H23.4733C25.3133 29 26.8867 27.6133 27.1133 25.7867L28.0467 18.2933C28.86 18.1867 29.4867 17.5067 29.4867 16.6667V14C29.4867 13.08 28.74 12.3333 27.82 12.3333H27.8333ZM25.62 21.6667H22.3L22.7133 18.3333H26.0333L25.62 21.6667ZM6.96667 18.3333H10.2867L10.7 21.6667H7.38L6.96667 18.3333ZM12.3 18.3333H15.5V21.6667H12.7133L12.3 18.3333ZM15.5 23.6667V27H13.38L12.9667 23.6667H15.5ZM17.5 23.6667H20.0333L19.62 27H17.5V23.6667ZM17.5 21.6667V18.3333H20.7L20.2867 21.6667H17.5ZM13.5 5H19.5V5.66667H13.5V5ZM8.16667 8C8.16667 7.08 8.91333 6.33333 9.83333 6.33333H11.5667C11.7267 7.09333 12.3667 7.66667 13.1667 7.66667H19.8333C20.6333 7.66667 21.2733 7.09333 21.4333 6.33333H23.1667C24.0867 6.33333 24.8333 7.08 24.8333 8V12.3333H8.16667V8ZM5.5 14.3333H27.5V16.3333H5.5V14.3333ZM7.87333 25.5333L7.63333 23.6667H10.9533L11.3667 27H9.52667C8.68667 27 7.98 26.3733 7.87333 25.5333ZM23.4867 27H21.6467L22.06 23.6667H25.38L25.14 25.5467C25.0333 26.3733 24.3267 27 23.4867 27Z" fill="#1D8ADB"/>
</g>
<defs>
<clipPath id="clip0_3816_45008">
<rect width="32" height="32" fill="white" transform="translate(0.5)"/>
</clipPath>
</defs>
</svg>
