<svg width="40" height="40" viewBox="0 0 40 40" fill="none" xmlns="http://www.w3.org/2000/svg">
<rect width="40" height="40" rx="6" fill="#E2F3FF" fill-opacity="0.64"/>
<path opacity="0.4" d="M28.1 14.94C28.1 15.48 27.81 15.97 27.35 16.22L25.61 17.16L24.13 17.95L21.06 19.61C20.73 19.79 20.37 19.88 20 19.88C19.63 19.88 19.27 19.79 18.94 19.61L12.65 16.22C12.19 15.97 11.9 15.48 11.9 14.94C11.9 14.4 12.19 13.91 12.65 13.66L14.62 12.6L16.19 11.75L18.94 10.27C19.6 9.91 20.4 9.91 21.06 10.27L27.35 13.66C27.81 13.91 28.1 14.4 28.1 14.94Z" fill="#2A56BD"/>
<path opacity="0.4" d="M17.9 20.79L12.05 17.86C11.6 17.63 11.08 17.66 10.65 17.92C10.22 18.18 9.97 18.64 9.97 19.14V24.67C9.97 25.63 10.5 26.49 11.36 26.92L17.21 29.8401C17.41 29.9401 17.63 29.99 17.85 29.99C18.11 29.99 18.37 29.92 18.6 29.77C19.03 29.51 19.28 29.05 19.28 28.55V23.02C19.29 22.08 18.76 21.22 17.9 20.79Z" fill="#2A56BD"/>
<path opacity="0.4" d="M30.03 19.15V24.68C30.03 25.63 29.5 26.49 28.64 26.92L22.79 29.85C22.59 29.95 22.37 30 22.15 30C21.89 30 21.63 29.93 21.39 29.78C20.97 29.52 20.71 29.06 20.71 28.56V23.04C20.71 22.08 21.24 21.22 22.1 20.79L24.25 19.72L25.75 18.97L27.95 17.87C28.4 17.64 28.92 17.66 29.35 17.93C29.77 18.19 30.03 18.65 30.03 19.15Z" fill="#2A56BD"/>
<path d="M25.61 17.16L24.13 17.95L14.62 12.6L16.19 11.75L25.37 16.93C25.47 16.99 25.55 17.07 25.61 17.16Z" fill="#2A56BD"/>
<path d="M25.75 18.97V21.24C25.75 21.65 25.41 21.99 25 21.99C24.59 21.99 24.25 21.65 24.25 21.24V19.72L25.75 18.97Z" fill="#2A56BD"/>
</svg>
