<svg width="32" height="33" viewBox="0 0 32 33" fill="none" xmlns="http://www.w3.org/2000/svg">
<path d="M28 10.5L22.6666 13.1666M22.6666 13.1666L22 13.5L16 16.5M22.6666 13.1666V17.8333M22.6666 13.1666L9.99996 6.49996M16 16.5L3.99996 10.5M16 16.5V29.1666M20.7706 5.00929L23.4373 6.40929C26.3053 7.91463 27.74 8.66663 28.5373 10.02C29.3333 11.372 29.3333 13.056 29.3333 16.4226V16.5786C29.3333 19.944 29.3333 21.628 28.5373 22.98C27.74 24.3333 26.3053 25.0866 23.4373 26.592L20.7706 27.9906C18.4293 29.2186 17.2586 29.8333 16 29.8333C14.7413 29.8333 13.5706 29.22 11.2293 27.9906L8.56263 26.5906C5.69463 25.0853 4.25996 24.3333 3.46263 22.98C2.66663 21.628 2.66663 19.944 2.66663 16.58V16.424C2.66663 13.0573 2.66663 11.3733 3.46263 10.0213C4.25996 8.66796 5.69463 7.91463 8.56263 6.41063L11.2293 5.01063C13.5706 3.78129 14.7413 3.16663 16 3.16663C17.2586 3.16663 18.4293 3.77996 20.7706 5.00929Z" stroke="#1D8ADB" stroke-width="1.5" stroke-linecap="round"/>
</svg>
