<svg width="65" height="65" viewBox="0 0 65 65" fill="none" xmlns="http://www.w3.org/2000/svg">
<path d="M32.5 0C26.0721 0 19.7886 1.90609 14.444 5.47724C9.09938 9.04838 4.93378 14.1242 2.47393 20.0628C0.0140817 26.0014 -0.629527 32.5361 0.624493 38.8404C1.87851 45.1448 4.97384 50.9358 9.51904 55.481C14.0643 60.0262 19.8552 63.1215 26.1596 64.3755C32.464 65.6295 38.9986 64.9859 44.9372 62.5261C50.8758 60.0662 55.9516 55.9006 59.5228 50.556C63.0939 45.2114 65 38.9279 65 32.5C64.9909 23.8833 61.5639 15.622 55.4709 9.52908C49.378 3.43612 41.1168 0.00909943 32.5 0ZM32.5 52.5C31.7583 52.5 31.0333 52.2801 30.4166 51.868C29.7999 51.456 29.3193 50.8703 29.0355 50.1851C28.7516 49.4998 28.6774 48.7458 28.8221 48.0184C28.9668 47.291 29.3239 46.6228 29.8484 46.0984C30.3728 45.5739 31.041 45.2168 31.7684 45.0721C32.4959 44.9274 33.2499 45.0016 33.9351 45.2855C34.6203 45.5693 35.206 46.0499 35.618 46.6666C36.0301 47.2833 36.25 48.0083 36.25 48.75C36.25 49.7446 35.8549 50.6984 35.1517 51.4016C34.4484 52.1049 33.4946 52.5 32.5 52.5ZM35 37.275V37.5C35 38.163 34.7366 38.7989 34.2678 39.2678C33.7989 39.7366 33.1631 40 32.5 40C31.837 40 31.2011 39.7366 30.7322 39.2678C30.2634 38.7989 30 38.163 30 37.5V35C30 34.337 30.2634 33.7011 30.7322 33.2322C31.2011 32.7634 31.837 32.5 32.5 32.5C36.6344 32.5 40 29.6875 40 26.25C40 22.8125 36.6344 20 32.5 20C28.3656 20 25 22.8125 25 26.25V27.5C25 28.163 24.7366 28.7989 24.2678 29.2678C23.7989 29.7366 23.1631 30 22.5 30C21.837 30 21.2011 29.7366 20.7322 29.2678C20.2634 28.7989 20 28.163 20 27.5V26.25C20 20.0469 25.6063 15 32.5 15C39.3938 15 45 20.0469 45 26.25C45 31.6812 40.7 36.2281 35 37.275Z" fill="#D3B16E"/>
</svg>
