<svg width="61" height="61" viewBox="0 0 61 61" fill="none" xmlns="http://www.w3.org/2000/svg">
<path d="M15.5 8C14.25 8 13.25 8.5 12.5 9.5L9.25 13.5C8.5 14.5 8 15.5 8 16.75V48C8 50.75 10.25 53 13 53H33.75C33.25 51.5 33 49.75 33 48C33 39.75 39.75 33 48 33C49.75 33 51.5 33.25 53 33.75V16.75C53 15.5 52.5 14.5 51.75 13.5L48.25 9.25C47.75 8.5 46.75 8 45.5 8H15.5ZM15.25 10.5H45.25L47.5 13H13.25L15.25 10.5ZM15.5 38H30.5V45.5H15.5V38ZM53.75 40L44.75 49L40.75 45L38 48L45 55.5L57 43.5L53.75 40Z" fill="#1BAA69"/>
</svg>
