<svg width="61" height="60" viewBox="0 0 61 60" fill="none" xmlns="http://www.w3.org/2000/svg">
<g id="ion:warning">
<path id="Vector" d="M53.1254 46.7672L33.1531 9.67734C31.7375 7.04766 27.9664 7.04766 26.5496 9.67734L6.57853 46.7672C6.27116 47.3381 6.11706 47.9789 6.13127 48.6271C6.14548 49.2753 6.32751 49.9088 6.6596 50.4656C6.99169 51.0225 7.46249 51.4838 8.02604 51.8044C8.5896 52.125 9.22665 52.294 9.87502 52.2949H49.8231C50.4719 52.295 51.1097 52.1267 51.6741 51.8065C52.2384 51.4863 52.7101 51.0252 53.0428 50.4682C53.3756 49.9111 53.5582 49.2773 53.5726 48.6286C53.5871 47.9799 53.433 47.3385 53.1254 46.7672ZM29.852 46.5527C29.3884 46.5527 28.9353 46.4153 28.5499 46.1577C28.1644 45.9002 27.864 45.5342 27.6866 45.1059C27.5092 44.6776 27.4628 44.2064 27.5533 43.7517C27.6437 43.2971 27.8669 42.8795 28.1947 42.5517C28.5225 42.2239 28.9401 42.0007 29.3947 41.9103C29.8494 41.8198 30.3206 41.8662 30.7489 42.0436C31.1771 42.221 31.5432 42.5214 31.8007 42.9069C32.0583 43.2923 32.1957 43.7454 32.1957 44.209C32.1957 44.8306 31.9488 45.4267 31.5092 45.8663C31.0697 46.3058 30.4736 46.5527 29.852 46.5527ZM32.3973 22.9805L31.7246 37.2773C31.7246 37.7746 31.5271 38.2515 31.1754 38.6032C30.8238 38.9548 30.3469 39.1523 29.8496 39.1523C29.3523 39.1523 28.8754 38.9548 28.5238 38.6032C28.1722 38.2515 27.9746 37.7746 27.9746 37.2773L27.302 22.9863C27.2869 22.6448 27.3406 22.3038 27.4601 21.9835C27.5796 21.6633 27.7624 21.3703 27.9975 21.1222C28.2326 20.8741 28.5153 20.6758 28.8287 20.5393C29.142 20.4027 29.4797 20.3306 29.8215 20.3273H29.8461C30.1903 20.3272 30.5309 20.3967 30.8474 20.5318C31.1639 20.6669 31.4498 20.8647 31.6878 21.1133C31.9258 21.3619 32.1109 21.6561 32.232 21.9782C32.3532 22.3004 32.4078 22.6437 32.3926 22.9875L32.3973 22.9805Z" fill="#D84639"/>
</g>
</svg>
