<svg width="33" height="35" viewBox="0 0 33 35" fill="none" xmlns="http://www.w3.org/2000/svg">
<path d="M21.3333 15.5C25.5 15.5 28.8333 18.8333 28.8333 23C28.8333 24.4667 28.4167 25.85 27.6833 27L32.8167 32.1667L30.5 34.4833L25.3 29.3667C24.15 30.0833 22.7833 30.5 21.3333 30.5C17.1667 30.5 13.8333 27.1667 13.8333 23C13.8333 18.8333 17.1667 15.5 21.3333 15.5ZM21.3333 18.8333C20.2283 18.8333 19.1685 19.2723 18.3871 20.0537C17.6057 20.8351 17.1667 21.8949 17.1667 23C17.1667 24.1051 17.6057 25.1649 18.3871 25.9463C19.1685 26.7277 20.2283 27.1667 21.3333 27.1667C22.4384 27.1667 23.4982 26.7277 24.2796 25.9463C25.061 25.1649 25.5 24.1051 25.5 23C25.5 21.8949 25.061 20.8351 24.2796 20.0537C23.4982 19.2723 22.4384 18.8333 21.3333 18.8333ZM3.83333 0.5H27.1667C29.0167 0.5 30.5 1.98333 30.5 3.83333V17.2167C29.6667 15.8833 28.5167 14.7333 27.1667 13.8333V3.83333H3.83333V27.1667H11.3333C11.85 28.4167 12.6 29.5333 13.5167 30.5H3.83333C1.98333 30.5 0.5 29.0167 0.5 27.1667V3.83333C0.5 1.98333 1.98333 0.5 3.83333 0.5ZM7.16667 7.16667H23.8333V10.5H7.16667V7.16667ZM7.16667 13.8333H15.55C14.2167 14.6667 13.0667 15.8167 12.1667 17.1667H7.16667V13.8333ZM7.16667 20.5H10.7833C10.6 21.3333 10.5 22.1667 10.5 23V23.8333H7.16667V20.5Z" fill="#9E9E9E"/>
</svg>
