<svg width="40" height="40" viewBox="0 0 40 40" fill="none" xmlns="http://www.w3.org/2000/svg">
<rect width="40" height="40" rx="6" fill="#FFF6E6" fill-opacity="0.64"/>
<path opacity="0.4" d="M27.3499 13.66L21.0599 10.27C20.3999 9.91 19.5999 9.91 18.9299 10.27L12.6399 13.66C12.1799 13.91 11.8999 14.4 11.8999 14.94C11.8999 15.48 12.1799 15.97 12.6399 16.22L18.9299 19.61C19.2599 19.79 19.6299 19.88 19.9899 19.88C20.3599 19.88 20.7199 19.79 21.0499 19.61L27.3399 16.22C27.7999 15.97 28.0799 15.48 28.0799 14.94C28.0899 14.4 27.8099 13.91 27.3499 13.66Z" fill="#D3B16E"/>
<path opacity="0.4" d="M17.9 20.7899L12.05 17.8599C11.6 17.6299 11.08 17.6599 10.65 17.9199C10.22 18.1799 9.96997 18.6399 9.96997 19.1399V24.6699C9.96997 25.6299 10.5 26.4899 11.36 26.9199L17.21 29.8399C17.41 29.9399 17.63 29.9899 17.85 29.9899C18.11 29.9899 18.37 29.9199 18.6 29.7699C19.03 29.5099 19.28 29.0499 19.28 28.5499V23.0199C19.29 22.0799 18.76 21.2199 17.9 20.7899Z" fill="#D3B16E"/>
<path opacity="0.4" d="M30.03 19.1502V23.7401C30.02 23.7301 30.01 23.7101 30 23.7001C30 23.6901 29.99 23.6801 29.98 23.6701C29.94 23.6101 29.89 23.5501 29.84 23.5001C29.83 23.4901 29.82 23.4702 29.81 23.4602C29 22.5602 27.81 22.0001 26.5 22.0001C25.24 22.0001 24.09 22.5201 23.27 23.3601C22.48 24.1701 22 25.2801 22 26.5001C22 27.3401 22.24 28.1401 22.65 28.8201C22.82 29.1101 23.03 29.3701 23.26 29.6101L22.79 29.8501C22.59 29.9501 22.37 30.0001 22.15 30.0001C21.89 30.0001 21.63 29.9302 21.39 29.7802C20.97 29.5202 20.71 29.0601 20.71 28.5601V23.0401C20.71 22.0801 21.24 21.2201 22.1 20.7901L27.95 17.8701C28.4 17.6401 28.92 17.6601 29.35 17.9301C29.77 18.1901 30.03 18.6502 30.03 19.1502Z" fill="#D3B16E"/>
<path d="M29.98 23.65C29.16 22.64 27.91 22 26.5 22C25.44 22 24.46 22.37 23.69 22.99C22.65 23.81 22 25.08 22 26.5C22 27.91 22.64 29.16 23.65 29.98C24.42 30.62 25.42 31 26.5 31C27.64 31 28.67 30.57 29.47 29.88C30.4 29.05 31 27.85 31 26.5C31 25.42 30.62 24.42 29.98 23.65ZM27.53 26.78C27.53 27.04 27.39 27.29 27.17 27.42L25.76 28.26C25.64 28.33 25.51 28.37 25.37 28.37C25.12 28.37 24.87 28.24 24.73 28.01C24.52 27.65 24.63 27.19 24.99 26.98L26.03 26.36V25.1C26.03 24.69 26.37 24.35 26.78 24.35C27.19 24.35 27.53 24.69 27.53 25.1V26.78Z" fill="#D3B16E"/>
</svg>
