<svg width="40" height="40" viewBox="0 0 40 40" fill="none" xmlns="http://www.w3.org/2000/svg">
<rect width="40" height="40" rx="6" fill="#F5F5F5"/>
<path opacity="0.4" d="M24.19 16.86C23.8 16.86 23.49 16.55 23.49 16.16V14.88C23.49 13.9 23.07 12.96 22.35 12.3C21.61 11.63 20.66 11.32 19.66 11.41C17.98 11.57 16.51 13.28 16.51 15.06V15.96C16.51 16.35 16.2 16.66 15.81 16.66C15.42 16.66 15.11 16.35 15.11 15.96V15.06C15.11 12.56 17.13 10.25 19.52 10.02C20.91 9.89002 22.25 10.33 23.28 11.27C24.3 12.19 24.88 13.51 24.88 14.88V16.16C24.88 16.55 24.57 16.86 24.19 16.86Z" fill="#404040"/>
<path d="M27.96 16.96C27.12 16.03 25.74 15.58 23.72 15.58H16.28C14.26 15.58 12.88 16.03 12.04 16.96C11.07 18.04 11.1 19.48 11.21 20.48L11.91 26.05C12.12 28 12.91 30 17.21 30H22.79C27.09 30 27.88 28 28.09 26.06L28.79 20.47C28.9 19.48 28.92 18.04 27.96 16.96ZM16.42 21.15H16.41C15.86 21.15 15.41 20.7 15.41 20.15C15.41 19.6 15.86 19.15 16.41 19.15C16.97 19.15 17.42 19.6 17.42 20.15C17.42 20.7 16.97 21.15 16.42 21.15ZM23.42 21.15H23.41C22.86 21.15 22.41 20.7 22.41 20.15C22.41 19.6 22.86 19.15 23.41 19.15C23.97 19.15 24.42 19.6 24.42 20.15C24.42 20.7 23.97 21.15 23.42 21.15Z" fill="#404040"/>
</svg>
