<svg width="33" height="32" viewBox="0 0 33 32" fill="none" xmlns="http://www.w3.org/2000/svg">
<circle cx="12.5" cy="12" r="12" fill="#ECF7FF"/>
<path d="M28.1667 12.2934C28.1667 10.9334 27.8867 9.61336 27.3133 8.34669L26.1667 5.88003C25.3533 4.12003 23.5667 2.98669 21.6333 2.98669H11.3667C9.43334 2.98669 7.64667 4.12003 6.83334 5.88003L5.67334 8.36003C5.11334 9.61336 4.82001 10.9334 4.82001 12.2934V14.6667C4.82001 14.8134 4.86001 14.9467 4.91334 15.08C4.87334 15.3867 4.82001 15.68 4.82001 16V22.6667C4.82001 26.16 7.66001 29 11.1533 29H21.82C25.3133 29 28.1533 26.16 28.1533 22.6667V16C28.1533 15.68 28.1 15.3867 28.06 15.08C28.1133 14.96 28.1533 14.8134 28.1533 14.6667V12.2934H28.1667ZM24.3533 6.73336L25.5 9.18669C25.82 9.88003 26.02 10.6134 26.1133 11.36C24.98 10.32 23.5 9.68003 21.8467 9.68003H17.5133V5.00003H21.6467C22.8067 5.00003 23.8733 5.68003 24.3667 6.73336H24.3533ZM8.64667 6.73336C9.14001 5.68003 10.2067 5.00003 11.3667 5.00003H15.5V9.66669H11.1667C9.51334 9.66669 8.02001 10.32 6.90001 11.3467C6.99334 10.6 7.19334 9.88003 7.50001 9.18669L8.64667 6.72003V6.73336ZM26.1667 22.6667C26.1667 25.0534 24.22 27 21.8333 27H11.1667C8.78001 27 6.83334 25.0534 6.83334 22.6667V16C6.83334 13.6134 8.78001 11.6667 11.1667 11.6667H21.8333C24.22 11.6667 26.1667 13.6134 26.1667 16V22.6667Z" fill="#1D8ADB"/>
<path d="M13.8333 23H9.83331C9.28665 23 8.83331 23.4533 8.83331 24C8.83331 24.5467 9.28665 25 9.83331 25H13.8333C14.38 25 14.8333 24.5467 14.8333 24C14.8333 23.4533 14.38 23 13.8333 23Z" fill="#1D8ADB"/>
</svg>
