<svg width="40" height="40" viewBox="0 0 40 40" fill="none" xmlns="http://www.w3.org/2000/svg">
<rect width="40" height="40" rx="6" fill="#E2FFE7" fill-opacity="0.64"/>
<path opacity="0.4" d="M30 17.75C29.59 17.75 29.25 17.41 29.25 17V15C29.25 12.42 27.58 10.75 25 10.75H15C12.42 10.75 10.75 12.42 10.75 15V17C10.75 17.41 10.41 17.75 10 17.75C9.59 17.75 9.25 17.41 9.25 17V15C9.25 11.56 11.56 9.25 15 9.25H25C28.44 9.25 30.75 11.56 30.75 15V17C30.75 17.41 30.41 17.75 30 17.75Z" fill="#1BAA69"/>
<path opacity="0.4" d="M25 30.75H15C11.56 30.75 9.25 28.44 9.25 25V23C9.25 22.59 9.59 22.25 10 22.25C10.41 22.25 10.75 22.59 10.75 23V25C10.75 27.58 12.42 29.25 15 29.25H25C27.58 29.25 29.25 27.58 29.25 25V23C29.25 22.59 29.59 22.25 30 22.25C30.41 22.25 30.75 22.59 30.75 23V25C30.75 28.44 28.44 30.75 25 30.75Z" fill="#1BAA69"/>
<path d="M24.4 16.21L20.64 14.18C20.24 13.97 19.77 13.97 19.37 14.18L15.61 16.21C15.34 16.36 15.17 16.6499 15.17 16.9799C15.17 17.3099 15.34 17.6 15.61 17.75L19.37 19.78C19.57 19.89 19.79 19.94 20.01 19.94C20.23 19.94 20.45 19.89 20.65 19.78L24.41 17.75C24.68 17.6 24.85 17.3099 24.85 16.9799C24.84 16.6499 24.67 16.36 24.4 16.21Z" fill="#1BAA69"/>
<path d="M18.74 20.4699L15.24 18.7199C14.97 18.5899 14.66 18.6 14.4 18.76C14.14 18.92 13.99 19.1899 13.99 19.4899V22.7999C13.99 23.3699 14.31 23.89 14.82 24.14L18.32 25.89C18.44 25.95 18.57 25.9799 18.71 25.9799C18.87 25.9799 19.02 25.9399 19.16 25.8499C19.42 25.6899 19.57 25.4199 19.57 25.1199V21.8099C19.57 21.2399 19.26 20.7299 18.74 20.4699Z" fill="#1BAA69"/>
<path d="M25.59 18.76C25.33 18.6 25.02 18.5899 24.75 18.7199L21.25 20.4699C20.74 20.7299 20.42 21.2399 20.42 21.8099V25.1199C20.42 25.4199 20.57 25.6899 20.83 25.8499C20.97 25.9399 21.12 25.9799 21.28 25.9799C21.41 25.9799 21.54 25.95 21.67 25.89L25.17 24.14C25.68 23.88 26 23.3699 26 22.7999V19.4899C26 19.1899 25.85 18.92 25.59 18.76Z" fill="#1BAA69"/>
</svg>
