<svg width="49" height="44" viewBox="0 0 49 44" fill="none" xmlns="http://www.w3.org/2000/svg">
<path id="khonic_logo" fill-rule="evenodd" clip-rule="evenodd" d="M25.0578 0.539017L47.8578 12.5389C48.2528 12.7455 48.5003 13.1546 48.5 13.6004V42.4C48.5002 42.7184 48.3738 43.0237 48.1487 43.2488C47.9237 43.4739 47.6183 43.6002 47.3 43.6H42.5C42.1817 43.6002 41.8763 43.4739 41.6513 43.2488C41.4262 43.0237 41.2998 42.7184 41.3 42.4V17.2003H7.7V42.4C7.70019 42.7184 7.57382 43.0237 7.34874 43.2488C7.12365 43.4739 6.81832 43.6002 6.5 43.6H1.7C1.38168 43.6002 1.07635 43.4739 0.851261 43.2488C0.626176 43.0237 0.49981 42.7184 0.5 42.4V13.6004C0.49965 13.1547 0.746924 12.7457 1.14176 12.5389L23.9418 0.539017C24.2907 0.353694 24.7088 0.353694 25.0578 0.539017ZM20.5275 41.7385C20.5275 41.8489 20.438 41.9385 20.3275 41.9385H15.6539C15.5434 41.9385 15.4539 41.8489 15.4539 41.7385V22.2C15.4539 22.0896 15.5434 22 15.6539 22H20.3275C20.438 22 20.5275 22.0896 20.5275 22.2V30.1742C20.5275 30.3637 20.7664 30.447 20.8842 30.2986L27.4103 22.0757C27.4483 22.0279 27.506 22 27.567 22H33.0095C33.1787 22 33.2715 22.197 33.1637 22.3274L25.4688 31.6433C25.4078 31.7171 25.4077 31.8238 25.4686 31.8978L33.4617 41.6114C33.5691 41.7419 33.4762 41.9385 33.3072 41.9385H27.6262C27.5653 41.9385 27.5076 41.9107 27.4697 41.863L20.8841 33.5821C20.7662 33.4339 20.5275 33.5172 20.5275 33.7066V41.7385Z" fill="#1D8ADB"/>
</svg>
