<svg width="80" height="80" viewBox="0 0 80 80" fill="none" xmlns="http://www.w3.org/2000/svg">
<path d="M36.6664 16.6664L5 35H11.6664V61.6664C11.6664 63.3336 13.1536 65.0001 15 65.0001H25V48.3336C24.9991 47.8956 25.0846 47.4617 25.2518 47.0568C25.419 46.6519 25.6645 46.284 25.9743 45.9743C26.284 45.6645 26.6519 45.419 27.0568 45.2518C27.4616 45.0846 27.8956 44.9991 28.3336 45H51.6664C53.5136 45 54.9424 46.488 55 48.3336V65.0001H65C65.438 65.001 65.872 64.9154 66.2768 64.7482C66.6817 64.581 67.0496 64.3355 67.3593 64.0257C67.6691 63.716 67.9146 63.3481 68.0818 62.9432C68.249 62.5383 68.3345 62.1044 68.3336 61.6664V35H75L43.3336 16.6664C41.9088 15.8424 40.5064 15.0024 40 15C39.4936 14.9984 38.1136 15.8288 36.6664 16.6664ZM28.3336 48.3336V51.6664H51.6664V48.3336H28.3336ZM28.3336 55V58.3336H51.6664V55H28.3336ZM28.3336 61.6664V65.0001H51.6664V61.6664H28.3336Z" fill="#9E9E9E"/>
</svg>
