<svg width="40" height="40" viewBox="0 0 40 40" fill="none" xmlns="http://www.w3.org/2000/svg">
<rect width="40" height="40" rx="6" fill="#FFF6E6" fill-opacity="0.64"/>
<path opacity="0.4" d="M27.35 13.66L21.06 10.27C20.4 9.91 19.6 9.91 18.93 10.27L12.64 13.66C12.18 13.91 11.9 14.4 11.9 14.94C11.9 15.48 12.18 15.97 12.64 16.22L18.93 19.61C19.26 19.79 19.63 19.88 19.99 19.88C20.36 19.88 20.72 19.79 21.05 19.61L27.34 16.22C27.8 15.97 28.08 15.48 28.08 14.94C28.09 14.4 27.81 13.91 27.35 13.66Z" fill="#D3B16E"/>
<path opacity="0.4" d="M17.9 20.79L12.05 17.86C11.6 17.63 11.08 17.66 10.65 17.92C10.22 18.18 9.97 18.64 9.97 19.14V24.67C9.97 25.63 10.5 26.49 11.36 26.92L17.21 29.8401C17.41 29.9401 17.63 29.99 17.85 29.99C18.11 29.99 18.37 29.92 18.6 29.77C19.03 29.51 19.28 29.05 19.28 28.55V23.02C19.29 22.08 18.76 21.22 17.9 20.79Z" fill="#D3B16E"/>
<path opacity="0.4" d="M30.03 19.15V23.74C30.02 23.73 30.01 23.71 30 23.7C30 23.69 29.99 23.68 29.98 23.67C29.94 23.61 29.89 23.55 29.84 23.5C29.83 23.49 29.82 23.47 29.81 23.46C29 22.56 27.81 22 26.5 22C25.24 22 24.09 22.52 23.27 23.36C22.48 24.17 22 25.28 22 26.5C22 27.34 22.24 28.14 22.65 28.82C22.82 29.11 23.03 29.37 23.26 29.61L22.79 29.85C22.59 29.95 22.37 30 22.15 30C21.89 30 21.63 29.93 21.39 29.78C20.97 29.52 20.71 29.06 20.71 28.56V23.04C20.71 22.08 21.24 21.22 22.1 20.79L27.95 17.87C28.4 17.64 28.92 17.66 29.35 17.93C29.77 18.19 30.03 18.65 30.03 19.15Z" fill="#D3B16E"/>
<path d="M29.98 23.65C29.16 22.64 27.91 22 26.5 22C25.44 22 24.46 22.37 23.69 22.99C22.65 23.81 22 25.08 22 26.5C22 27.91 22.64 29.16 23.65 29.98C24.42 30.62 25.42 31 26.5 31C27.64 31 28.67 30.57 29.47 29.88C30.4 29.05 31 27.85 31 26.5C31 25.42 30.62 24.42 29.98 23.65ZM27.53 26.78C27.53 27.04 27.39 27.29 27.17 27.42L25.76 28.26C25.64 28.33 25.51 28.37 25.37 28.37C25.12 28.37 24.87 28.24 24.73 28.01C24.52 27.65 24.63 27.19 24.99 26.98L26.03 26.36V25.1C26.03 24.69 26.37 24.35 26.78 24.35C27.19 24.35 27.53 24.69 27.53 25.1V26.78Z" fill="#D3B16E"/>
</svg>
